<svg width="10.669678" height="10.513428" viewBox="0 0 10.6697 10.5134" fill="none" xmlns="http://www.w3.org/2000/svg" xmlns:xlink="http://www.w3.org/1999/xlink">
	<desc>
			Created with Pixso.
	</desc>
	<defs>
		<filter id="filter_27_208_dd" x="0.000000" y="0.000000" width="10.669678" height="10.513428" filterUnits="userSpaceOnUse" color-interpolation-filters="sRGB">
			<feFlood flood-opacity="0" result="BackgroundImageFix"/>
			<feColorMatrix in="SourceAlpha" type="matrix" values="0 0 0 0 0 0 0 0 0 0 0 0 0 0 0 0 0 0 127 0" result="hardAlpha"/>
			<feOffset dx="0" dy="2"/>
			<feGaussianBlur stdDeviation="0"/>
			<feComposite in2="hardAlpha" operator="out" k2="-1" k3="1"/>
			<feColorMatrix type="matrix" values="0 0 0 0 0 0 0 0 0 0 0 0 0 0 0 0 0 0 0.1 0"/>
			<feBlend mode="normal" in2="BackgroundImageFix" result="effect_dropShadow_1"/>
			<feBlend mode="normal" in="SourceGraphic" in2="effect_dropShadow_1" result="shape"/>
		</filter>
	</defs>
	<g filter="url(#filter_27_208_dd)">
		<path id="Vector" d="M8.99 0.29C9.17 0.1 9.42 0 9.68 0C9.93 -0.01 10.18 0.09 10.37 0.28C10.56 0.46 10.66 0.7 10.66 0.96C10.67 1.22 10.57 1.47 10.39 1.66L5.16 8.19C5.07 8.29 4.96 8.37 4.84 8.42C4.72 8.48 4.59 8.51 4.46 8.51C4.33 8.51 4.2 8.49 4.07 8.44C3.95 8.39 3.84 8.31 3.75 8.22L0.28 4.76C0.1 4.57 0 4.32 0 4.06C0 3.8 0.1 3.55 0.28 3.37C0.47 3.18 0.72 3.08 0.98 3.08C1.24 3.08 1.49 3.18 1.67 3.37L4.41 6.11L8.96 0.32C8.97 0.31 8.98 0.3 8.99 0.29L8.99 0.29Z" fill="#FFFFFF" fill-opacity="1.000000" fill-rule="nonzero"/>
	</g>
</svg>

